{
    "asset": {
        "copyright": "2020 (c) Adobe Inc.",
        "generator": "Adobe Dimension - ef4f41a6842c60acc27c15e21adfa2a5f9da2982",
        "version": "2.0"
    },
    "accessors": [
        {
            "bufferView": 0,
            "componentType": 5126,
            "count": 1856,
            "type": "VEC3",
            "max": [
                92.02715301513672,
                137.71884155273438,
                86.69550323486328
            ],
            "min": [
                -164.75314331054688,
                -106.49143981933594,
                3.850813150405884
            ]
        },
        {
            "bufferView": 1,
            "componentType": 5126,
            "count": 1856,
            "type": "VEC3"
        },
        {
            "bufferView": 2,
            "componentType": 5126,
            "count": 1856,
            "type": "VEC2"
        },
        {
            "bufferView": 3,
            "componentType": 5125,
            "count": 3120,
            "type": "SCALAR",
            "max": [
                1855.0
            ],
            "min": [
                0.0
            ]
        }
    ],
    "bufferViews": [
        {
            "buffer": 0,
            "byteOffset": 0,
            "byteLength": 22272,
            "target": 34962
        },
        {
            "buffer": 0,
            "byteOffset": 22272,
            "byteLength": 22272,
            "target": 34962
        },
        {
            "buffer": 0,
            "byteOffset": 44544,
            "byteLength": 14848,
            "target": 34962
        },
        {
            "buffer": 0,
            "byteOffset": 59392,
            "byteLength": 12480,
            "target": 34963
        }
    ],
    "buffers": [
        {
            "byteLength": 71872,
            "uri": "sky-dome_binary.bin"
        }
    ],
    "cameras": [
        {
            "perspective": {
                "znear": 0.007278407458215952,
                "yfov": 0.6024156808853149,
                "zfar": 400.3124084472656,
                "aspectRatio": 1.3333333730697632
            },
            "type": "perspective",
            "name": "render_camera"
        }
    ],
    "materials": [
        {
            "pbrMetallicRoughness": {
                "metallicFactor": 0.0,
                "roughnessFactor": 0.6000000238418579
            },
            "name": "default",
            "doubleSided": true
        }
    ],
    "meshes": [
        {
            "name": "entity",
            "primitives": [
                {
                    "attributes": {
                        "POSITION": 0,
                        "NORMAL": 1,
                        "TEXCOORD_0": 2
                    },
                    "indices": 3,
                    "material": 0
                }
            ]
        }
    ],
    "nodes": [
        {
            "translation": [
                36.86299133300781,
                -3.5508131980895998,
                16.11370086669922
            ],
            "rotation": [
                -0.12059047073125839,
                0.379409521818161,
                0.04995020851492882,
                0.9159756302833557
            ],
            "scale": [
                1.0,
                1.0,
                0.9999999403953552
            ],
            "camera": 0,
            "name": "render_camera_n3d"
        },
        {
            "translation": [
                36.36299133300781,
                -3.850813150405884,
                15.613700866699219
            ],
            "rotation": [
                -0.7071067690849304,
                0.0,
                0.0,
                0.7071067690849304
            ],
            "mesh": 0,
            "name": "entity"
        }
    ],
    "scenes": [
        {
            "nodes": [
                0,
                1
            ],
            "name": "scene"
        }
    ],
    "scene": 0
}