<?xml version="1.0" encoding="utf-8"?>
<!-- Generator: Adobe Illustrator 27.8.0, SVG Export Plug-In . SVG Version: 6.00 Build 0)  -->
<svg version="1.1" id="Layer_1" xmlns="http://www.w3.org/2000/svg" xmlns:xlink="http://www.w3.org/1999/xlink" x="0px" y="0px"
	 viewBox="0 0 205.2 142.1" style="enable-background:new 0 0 205.2 142.1;" xml:space="preserve">
<style type="text/css">
	.st0{fill:#FFFFFF;}
	.st1{fill:none;}
	.st2{fill:#00A189;fill-opacity:0.8;stroke:#FFFFFF;stroke-width:0.5;}
	.st3{fill:#1A1A1A;stroke:#1A1A1A;stroke-width:0.5;stroke-linejoin:round;}
	.st4{fill:#1A1A1A;}
	.st5{fill:#333333;}
</style>
<g id="patch_2">
	<path class="st0" d="M29.1,103.2h167.4V20H29.1V103.2z"/>
</g>
<g id="patch_3">
	<rect x="29.1" y="20" class="st1" width="167.4" height="83.2"/>
	<path class="st2" d="M36.7,103.2h7.6v-76h-7.6V103.2z"/>
</g>
<g id="patch_4">
	<rect x="29.1" y="20" class="st1" width="167.4" height="83.2"/>
	<path class="st2" d="M44.3,103.2h7.6V58.1h-7.6V103.2z"/>
</g>
<g id="patch_5">
	<rect x="29.1" y="20" class="st1" width="167.4" height="83.2"/>
	<path class="st2" d="M51.9,103.2h7.6V72.3h-7.6V103.2z"/>
</g>
<g id="patch_6">
	<rect x="29.1" y="20" class="st1" width="167.4" height="83.2"/>
	<path class="st2" d="M59.5,103.2h7.6V73.5h-7.6V103.2z"/>
</g>
<g id="patch_7">
	<rect x="29.1" y="20" class="st1" width="167.4" height="83.2"/>
	<path class="st2" d="M67.2,103.2h7.6V83h-7.6V103.2z"/>
</g>
<g id="patch_8">
	<rect x="29.1" y="20" class="st1" width="167.4" height="83.2"/>
	<path class="st2" d="M74.8,103.2h7.6V85.4h-7.6V103.2z"/>
</g>
<g id="patch_9">
	<rect x="29.1" y="20" class="st1" width="167.4" height="83.2"/>
	<path class="st2" d="M82.4,103.2H90v-9.5h-7.6V103.2z"/>
</g>
<g id="patch_10">
	<rect x="29.1" y="20" class="st1" width="167.4" height="83.2"/>
	<path class="st2" d="M90,103.2h7.6v-8.3H90V103.2z"/>
</g>
<g id="patch_11">
	<rect x="29.1" y="20" class="st1" width="167.4" height="83.2"/>
	<path class="st2" d="M97.6,103.2h7.6v-9.5h-7.6V103.2z"/>
</g>
<g id="patch_12">
	<rect x="29.1" y="20" class="st1" width="167.4" height="83.2"/>
	<path class="st2" d="M105.2,103.2h7.6v-2.4h-7.6V103.2z"/>
</g>
<g id="patch_13">
	<rect x="29.1" y="20" class="st1" width="167.4" height="83.2"/>
	<path class="st2" d="M112.8,103.2h7.6v-2.4h-7.6V103.2z"/>
</g>
<g id="patch_14">
	<rect x="29.1" y="20" class="st1" width="167.4" height="83.2"/>
	<path class="st2" d="M120.4,103.2h7.6v-2.4h-7.6V103.2z"/>
</g>
<g id="patch_15">
	<rect x="29.1" y="20" class="st1" width="167.4" height="83.2"/>
	<path class="st2" d="M128,103.2h7.6l0,0H128z"/>
</g>
<g id="patch_16">
	<rect x="29.1" y="20" class="st1" width="167.4" height="83.2"/>
	<path class="st2" d="M135.6,103.2h7.6v-3.6h-7.6V103.2z"/>
</g>
<g id="patch_17">
	<rect x="29.1" y="20" class="st1" width="167.4" height="83.2"/>
	<path class="st2" d="M143.2,103.2h7.6l0,0H143.2z"/>
</g>
<g id="patch_18">
	<rect x="29.1" y="20" class="st1" width="167.4" height="83.2"/>
	<path class="st2" d="M150.9,103.2h7.6l0,0H150.9z"/>
</g>
<g id="patch_19">
	<rect x="29.1" y="20" class="st1" width="167.4" height="83.2"/>
	<path class="st2" d="M158.5,103.2h7.6v-2.4h-7.6V103.2z"/>
</g>
<g id="patch_20">
	<rect x="29.1" y="20" class="st1" width="167.4" height="83.2"/>
	<path class="st2" d="M166.1,103.2h7.6l0,0H166.1z"/>
</g>
<g id="patch_21">
	<rect x="29.1" y="20" class="st1" width="167.4" height="83.2"/>
	<path class="st2" d="M173.7,103.2h7.6V102h-7.6V103.2z"/>
</g>
<g id="patch_22">
	<rect x="29.1" y="20" class="st1" width="167.4" height="83.2"/>
	<path class="st2" d="M181.3,103.2h7.6V102h-7.6V103.2z"/>
</g>
<g id="line2d_1">
	<g>
		<g>
			<path id="m94e81cacf8" class="st3" d="M36.7,109.2v-3"/>
		</g>
	</g>
</g>
<g id="text_1">
	<g transform="translate(34.810028 119.757656) scale(0.06 -0.06)">
		<g>
			<path id="DejaVuSans-30" class="st4" d="M31.8,83.1c-5.1,0-8.9-2.5-11.5-7.5c-2.6-5-3.8-12.5-3.8-22.5c0-10,1.3-17.5,3.8-22.5
				c2.6-5,6.4-7.5,11.5-7.5c5.1,0,8.9,2.5,11.5,7.5c2.6,5,3.8,12.5,3.8,22.5c0,10-1.3,17.5-3.8,22.5C40.7,80.6,36.9,83.1,31.8,83.1z
				 M31.8,90.9c8.2,0,14.4-3.2,18.7-9.7C54.8,74.7,57,65.3,57,53c0-12.3-2.2-21.6-6.5-28.1c-4.3-6.5-10.6-9.7-18.7-9.7
				c-8.2,0-14.4,3.2-18.7,9.7C8.8,31.4,6.6,40.8,6.6,53c0,12.3,2.2,21.7,6.5,28.1C17.4,87.7,23.6,90.9,31.8,90.9z"/>
		</g>
	</g>
</g>
<g id="line2d_2">
	<g>
		<g>
			<path id="m94e81cacf8_00000142859175438349551380000008354921789313424565_" class="st3" d="M52.5,109.2v-3"/>
		</g>
	</g>
</g>
<g id="text_2">
	<g transform="translate(50.557319 119.757656) scale(0.06 -0.06)">
		<g>
			<path id="DejaVuSans-35" class="st4" d="M10.8,89.6h38.7v-8.3H19.8V63.4c1.4,0.5,2.9,0.9,4.3,1.1c1.4,0.2,2.9,0.4,4.3,0.4
				c8.1,0,14.6-2.2,19.3-6.7c4.8-4.5,7.1-10.5,7.1-18.1c0-7.8-2.4-13.9-7.3-18.3c-4.9-4.3-11.8-6.5-20.7-6.5c-3.1,0-6.2,0.3-9.4,0.8
				c-3.2,0.5-6.4,1.3-9.8,2.3v9.9c2.9-1.6,6-2.8,9.1-3.6s6.4-1.2,9.9-1.2c5.6,0,10.1,1.5,13.4,4.4c3.3,3,4.9,7,4.9,12.1
				c0,5.1-1.6,9.1-4.9,12c-3.3,3-7.7,4.5-13.4,4.5c-2.6,0-5.3-0.3-7.9-0.9c-2.6-0.6-5.3-1.5-8-2.7V89.6z"/>
		</g>
	</g>
</g>
<g id="line2d_3">
	<g>
		<g>
			<path id="m94e81cacf8_00000057827840551892336740000009296039858479336369_" class="st3" d="M68.2,109.2v-3"/>
		</g>
	</g>
</g>
<g id="text_3">
	<g transform="translate(64.39586 119.757656) scale(0.06 -0.06)">
		<g>
			<path id="DejaVuSans-31" class="st4" d="M12.4,25h16.1v55.6L11,77.1v9l17.4,3.5h9.9V25h16.1v-8.3h-42V25z"/>
		</g>
		<g>
			<path id="DejaVuSans-30_00000027590135219357610630000013876135383477958572_" class="st4" d="M95.4,83.1
				c-5.1,0-8.9-2.5-11.5-7.5c-2.6-5-3.8-12.5-3.8-22.5c0-10,1.3-17.5,3.8-22.5c2.6-5,6.4-7.5,11.5-7.5c5.1,0,8.9,2.5,11.5,7.5
				c2.6,5,3.8,12.5,3.8,22.5c0,10-1.3,17.5-3.8,22.5C104.4,80.6,100.5,83.1,95.4,83.1z M95.4,90.9c8.2,0,14.4-3.2,18.7-9.7
				c4.3-6.5,6.5-15.8,6.5-28.1c0-12.3-2.2-21.6-6.5-28.1c-4.3-6.5-10.6-9.7-18.7-9.7c-8.2,0-14.4,3.2-18.7,9.7
				c-4.3,6.5-6.5,15.8-6.5,28.1c0,12.3,2.2,21.7,6.5,28.1C81,87.7,87.2,90.9,95.4,90.9z"/>
		</g>
	</g>
</g>
<g id="line2d_4">
	<g>
		<g>
			<path id="m94e81cacf8_00000031199235628575122850000002647218424536430502_" class="st3" d="M84,109.2v-3"/>
		</g>
	</g>
</g>
<g id="text_4">
	<g transform="translate(80.143151 119.757656) scale(0.06 -0.06)">
		<g>
			<path id="DejaVuSans-31_00000081633475259027867990000008239888977670884533_" class="st4" d="M12.4,25h16.1v55.6L11,77.1v9
				l17.4,3.5h9.9V25h16.1v-8.3h-42V25z"/>
		</g>
		<g>
			<path id="DejaVuSans-35_00000061469887996455122910000015825261619241183648_" class="st4" d="M74.4,89.6h38.7v-8.3H83.5V63.4
				c1.4,0.5,2.9,0.9,4.3,1.1c1.4,0.2,2.9,0.4,4.3,0.4c8.1,0,14.6-2.2,19.3-6.7c4.8-4.5,7.1-10.5,7.1-18.1c0-7.8-2.4-13.9-7.3-18.3
				c-4.9-4.3-11.8-6.5-20.7-6.5c-3.1,0-6.2,0.3-9.4,0.8c-3.2,0.5-6.4,1.3-9.8,2.3v9.9c2.9-1.6,6-2.8,9.1-3.6s6.4-1.2,9.9-1.2
				c5.6,0,10.1,1.5,13.4,4.4c3.3,3,4.9,7,4.9,12.1c0,5.1-1.6,9.1-4.9,12c-3.3,3-7.7,4.5-13.4,4.5c-2.6,0-5.3-0.3-7.9-0.9
				c-2.6-0.6-5.3-1.5-8-2.7V89.6z"/>
		</g>
	</g>
</g>
<g id="line2d_5">
	<g>
		<g>
			<path id="m94e81cacf8_00000109014065777550008850000015417572577679009159_" class="st3" d="M99.7,109.2v-3"/>
		</g>
	</g>
</g>
<g id="text_5">
	<g transform="translate(95.890442 119.757656) scale(0.06 -0.06)">
		<g>
			<path id="DejaVuSans-32" class="st4" d="M19.2,25h34.4v-8.3H7.3V25c3.7,3.9,8.8,9.1,15.3,15.6c6.5,6.5,10.5,10.7,12.2,12.6
				c3.2,3.5,5.4,6.5,6.6,9c1.3,2.5,1.9,4.9,1.9,7.2c0,3.9-1.4,7-4.1,9.5c-2.7,2.4-6.3,3.7-10.6,3.7c-3.1,0-6.4-0.5-9.8-1.6
				c-3.4-1.1-7.1-2.7-11-4.9v10c4,1.6,7.7,2.8,11.1,3.6c3.5,0.8,6.6,1.2,9.5,1.2c7.6,0,13.6-1.9,18.1-5.7c4.5-3.8,6.7-8.8,6.7-15.1
				c0-3-0.6-5.8-1.7-8.5c-1.1-2.7-3.2-5.8-6.1-9.5c-0.8-0.9-3.4-3.7-7.8-8.2C33.3,39.4,27.1,33.1,19.2,25z"/>
		</g>
		<g>
			<path id="DejaVuSans-30_00000019661705788885574360000011494218173223549846_" class="st4" d="M95.4,83.1
				c-5.1,0-8.9-2.5-11.5-7.5c-2.6-5-3.8-12.5-3.8-22.5c0-10,1.3-17.5,3.8-22.5c2.6-5,6.4-7.5,11.5-7.5c5.1,0,8.9,2.5,11.5,7.5
				c2.6,5,3.8,12.5,3.8,22.5c0,10-1.3,17.5-3.8,22.5C104.4,80.6,100.5,83.1,95.4,83.1z M95.4,90.9c8.2,0,14.4-3.2,18.7-9.7
				c4.3-6.5,6.5-15.8,6.5-28.1c0-12.3-2.2-21.6-6.5-28.1c-4.3-6.5-10.6-9.7-18.7-9.7c-8.2,0-14.4,3.2-18.7,9.7
				c-4.3,6.5-6.5,15.8-6.5,28.1c0,12.3,2.2,21.7,6.5,28.1C81,87.7,87.2,90.9,95.4,90.9z"/>
		</g>
	</g>
</g>
<g id="line2d_6">
	<g>
		<g>
			<path id="m94e81cacf8_00000019674457960991427990000002487466711803095729_" class="st3" d="M115.5,109.2v-3"/>
		</g>
	</g>
</g>
<g id="text_6">
	<g transform="translate(111.637732 119.757656) scale(0.06 -0.06)">
		<g>
			<path id="DejaVuSans-32_00000063621173055820673070000007334997407861606820_" class="st4" d="M19.2,25h34.4v-8.3H7.3V25
				c3.7,3.9,8.8,9.1,15.3,15.6c6.5,6.5,10.5,10.7,12.2,12.6c3.2,3.5,5.4,6.5,6.6,9c1.3,2.5,1.9,4.9,1.9,7.2c0,3.9-1.4,7-4.1,9.5
				c-2.7,2.4-6.3,3.7-10.6,3.7c-3.1,0-6.4-0.5-9.8-1.6c-3.4-1.1-7.1-2.7-11-4.9v10c4,1.6,7.7,2.8,11.1,3.6c3.5,0.8,6.6,1.2,9.5,1.2
				c7.6,0,13.6-1.9,18.1-5.7c4.5-3.8,6.7-8.8,6.7-15.1c0-3-0.6-5.8-1.7-8.5c-1.1-2.7-3.2-5.8-6.1-9.5c-0.8-0.9-3.4-3.7-7.8-8.2
				C33.3,39.4,27.1,33.1,19.2,25z"/>
		</g>
		<g>
			<path id="DejaVuSans-35_00000070808401307033885670000003235229615642829983_" class="st4" d="M74.4,89.6h38.7v-8.3H83.5V63.4
				c1.4,0.5,2.9,0.9,4.3,1.1c1.4,0.2,2.9,0.4,4.3,0.4c8.1,0,14.6-2.2,19.3-6.7c4.8-4.5,7.1-10.5,7.1-18.1c0-7.8-2.4-13.9-7.3-18.3
				c-4.9-4.3-11.8-6.5-20.7-6.5c-3.1,0-6.2,0.3-9.4,0.8c-3.2,0.5-6.4,1.3-9.8,2.3v9.9c2.9-1.6,6-2.8,9.1-3.6s6.4-1.2,9.9-1.2
				c5.6,0,10.1,1.5,13.4,4.4c3.3,3,4.9,7,4.9,12.1c0,5.1-1.6,9.1-4.9,12c-3.3,3-7.7,4.5-13.4,4.5c-2.6,0-5.3-0.3-7.9-0.9
				c-2.6-0.6-5.3-1.5-8-2.7V89.6z"/>
		</g>
	</g>
</g>
<g id="line2d_7">
	<g>
		<g>
			<path id="m94e81cacf8_00000129926944763997877740000016160289953814197179_" class="st3" d="M131.2,109.2v-3"/>
		</g>
	</g>
</g>
<g id="text_7">
	<g transform="translate(127.385023 119.757656) scale(0.06 -0.06)">
		<g>
			<path id="DejaVuSans-33" class="st4" d="M40.6,56c4.7-1,8.4-3.1,11-6.3c2.7-3.2,4-7.1,4-11.8c0-7.2-2.5-12.8-7.4-16.7
				c-4.9-3.9-12-5.9-21.1-5.9c-3.1,0-6.2,0.3-9.4,0.9c-3.2,0.6-6.6,1.5-10,2.7v9.5c2.7-1.6,5.7-2.8,9-3.6c3.3-0.8,6.7-1.2,10.2-1.2
				c6.2,0,10.9,1.2,14.1,3.7s4.9,6,4.9,10.6c0,4.3-1.5,7.7-4.5,10.1c-3,2.4-7.2,3.6-12.6,3.6h-8.5v8.1h8.9c4.8,0,8.6,1,11.1,2.9
				c2.6,1.9,3.9,4.7,3.9,8.4c0,3.7-1.3,6.6-4,8.6c-2.6,2-6.4,3-11.4,3c-2.7,0-5.6-0.3-8.7-0.9c-3.1-0.6-6.5-1.5-10.2-2.7v8.8
				c3.8,1,7.3,1.8,10.5,2.3s6.4,0.8,9.2,0.8c7.5,0,13.4-1.7,17.8-5.1c4.4-3.4,6.5-8,6.5-13.8c0-4-1.2-7.5-3.5-10.2
				C48.1,59,44.8,57.1,40.6,56z"/>
		</g>
		<g>
			<path id="DejaVuSans-30_00000068648922570984329510000001725711851700485550_" class="st4" d="M95.4,83.1
				c-5.1,0-8.9-2.5-11.5-7.5c-2.6-5-3.8-12.5-3.8-22.5c0-10,1.3-17.5,3.8-22.5c2.6-5,6.4-7.5,11.5-7.5c5.1,0,8.9,2.5,11.5,7.5
				c2.6,5,3.8,12.5,3.8,22.5c0,10-1.3,17.5-3.8,22.5C104.4,80.6,100.5,83.1,95.4,83.1z M95.4,90.9c8.2,0,14.4-3.2,18.7-9.7
				c4.3-6.5,6.5-15.8,6.5-28.1c0-12.3-2.2-21.6-6.5-28.1c-4.3-6.5-10.6-9.7-18.7-9.7c-8.2,0-14.4,3.2-18.7,9.7
				c-4.3,6.5-6.5,15.8-6.5,28.1c0,12.3,2.2,21.7,6.5,28.1C81,87.7,87.2,90.9,95.4,90.9z"/>
		</g>
	</g>
</g>
<g id="line2d_8">
	<g>
		<g>
			<path id="m94e81cacf8_00000032614218037324727170000003780383103656666521_" class="st3" d="M146.9,109.2v-3"/>
		</g>
	</g>
</g>
<g id="text_8">
	<g transform="translate(143.132314 119.757656) scale(0.06 -0.06)">
		<g>
			<path id="DejaVuSans-33_00000051353755121873611890000009978492665541244320_" class="st4" d="M40.6,56c4.7-1,8.4-3.1,11-6.3
				c2.7-3.2,4-7.1,4-11.8c0-7.2-2.5-12.8-7.4-16.7c-4.9-3.9-12-5.9-21.1-5.9c-3.1,0-6.2,0.3-9.4,0.9c-3.2,0.6-6.6,1.5-10,2.7v9.5
				c2.7-1.6,5.7-2.8,9-3.6c3.3-0.8,6.7-1.2,10.2-1.2c6.2,0,10.9,1.2,14.1,3.7s4.9,6,4.9,10.6c0,4.3-1.5,7.7-4.5,10.1
				c-3,2.4-7.2,3.6-12.6,3.6h-8.5v8.1h8.9c4.8,0,8.6,1,11.1,2.9c2.6,1.9,3.9,4.7,3.9,8.4c0,3.7-1.3,6.6-4,8.6c-2.6,2-6.4,3-11.4,3
				c-2.7,0-5.6-0.3-8.7-0.9c-3.1-0.6-6.5-1.5-10.2-2.7v8.8c3.8,1,7.3,1.8,10.5,2.3s6.4,0.8,9.2,0.8c7.5,0,13.4-1.7,17.8-5.1
				c4.4-3.4,6.5-8,6.5-13.8c0-4-1.2-7.5-3.5-10.2C48.1,59,44.8,57.1,40.6,56z"/>
		</g>
		<g>
			<path id="DejaVuSans-35_00000077312739612190246630000016725772640691689363_" class="st4" d="M74.4,89.6h38.7v-8.3H83.5V63.4
				c1.4,0.5,2.9,0.9,4.3,1.1c1.4,0.2,2.9,0.4,4.3,0.4c8.1,0,14.6-2.2,19.3-6.7c4.8-4.5,7.1-10.5,7.1-18.1c0-7.8-2.4-13.9-7.3-18.3
				c-4.9-4.3-11.8-6.5-20.7-6.5c-3.1,0-6.2,0.3-9.4,0.8c-3.2,0.5-6.4,1.3-9.8,2.3v9.9c2.9-1.6,6-2.8,9.1-3.6s6.4-1.2,9.9-1.2
				c5.6,0,10.1,1.5,13.4,4.4c3.3,3,4.9,7,4.9,12.1c0,5.1-1.6,9.1-4.9,12c-3.3,3-7.7,4.5-13.4,4.5c-2.6,0-5.3-0.3-7.9-0.9
				c-2.6-0.6-5.3-1.5-8-2.7V89.6z"/>
		</g>
	</g>
</g>
<g id="line2d_9">
	<g>
		<g>
			<path id="m94e81cacf8_00000163786412422332047840000017114700813690412990_" class="st3" d="M162.7,109.2v-3"/>
		</g>
	</g>
</g>
<g id="text_9">
	<g transform="translate(158.879605 119.757656) scale(0.06 -0.06)">
		<g>
			<path id="DejaVuSans-34" class="st4" d="M37.8,81L12.9,42.1h24.9V81z M35.2,89.6h12.4V42.1H58v-8.2H47.6V16.7h-9.8v17.2H4.9v9.5
				L35.2,89.6z"/>
		</g>
		<g>
			<path id="DejaVuSans-30_00000134947262975409617100000016541264573047393704_" class="st4" d="M95.4,83.1
				c-5.1,0-8.9-2.5-11.5-7.5c-2.6-5-3.8-12.5-3.8-22.5c0-10,1.3-17.5,3.8-22.5c2.6-5,6.4-7.5,11.5-7.5c5.1,0,8.9,2.5,11.5,7.5
				c2.6,5,3.8,12.5,3.8,22.5c0,10-1.3,17.5-3.8,22.5C104.4,80.6,100.5,83.1,95.4,83.1z M95.4,90.9c8.2,0,14.4-3.2,18.7-9.7
				c4.3-6.5,6.5-15.8,6.5-28.1c0-12.3-2.2-21.6-6.5-28.1c-4.3-6.5-10.6-9.7-18.7-9.7c-8.2,0-14.4,3.2-18.7,9.7
				c-4.3,6.5-6.5,15.8-6.5,28.1c0,12.3,2.2,21.7,6.5,28.1C81,87.7,87.2,90.9,95.4,90.9z"/>
		</g>
	</g>
</g>
<g id="line2d_10">
	<g>
		<g>
			<path id="m94e81cacf8_00000116194063198678133690000002769552929687305365_" class="st3" d="M178.4,109.2v-3"/>
		</g>
	</g>
</g>
<g id="text_10">
	<g transform="translate(174.626896 119.757656) scale(0.06 -0.06)">
		<g>
			<path id="DejaVuSans-34_00000105408302539560715780000015231097423173647036_" class="st4" d="M37.8,81L12.9,42.1h24.9V81z
				 M35.2,89.6h12.4V42.1H58v-8.2H47.6V16.7h-9.8v17.2H4.9v9.5L35.2,89.6z"/>
		</g>
		<g>
			<path id="DejaVuSans-35_00000021826628341360552910000017905830825099854747_" class="st4" d="M74.4,89.6h38.7v-8.3H83.5V63.4
				c1.4,0.5,2.9,0.9,4.3,1.1c1.4,0.2,2.9,0.4,4.3,0.4c8.1,0,14.6-2.2,19.3-6.7c4.8-4.5,7.1-10.5,7.1-18.1c0-7.8-2.4-13.9-7.3-18.3
				c-4.9-4.3-11.8-6.5-20.7-6.5c-3.1,0-6.2,0.3-9.4,0.8c-3.2,0.5-6.4,1.3-9.8,2.3v9.9c2.9-1.6,6-2.8,9.1-3.6s6.4-1.2,9.9-1.2
				c5.6,0,10.1,1.5,13.4,4.4c3.3,3,4.9,7,4.9,12.1c0,5.1-1.6,9.1-4.9,12c-3.3,3-7.7,4.5-13.4,4.5c-2.6,0-5.3-0.3-7.9-0.9
				c-2.6-0.6-5.3-1.5-8-2.7V89.6z"/>
		</g>
	</g>
</g>
<g id="line2d_11">
	<g>
		<g>
			<path id="m94e81cacf8_00000139990816671467180010000004969560295146094250_" class="st3" d="M194.2,109.2v-3"/>
		</g>
	</g>
</g>
<g id="text_11">
	<g transform="translate(190.374186 119.757656) scale(0.06 -0.06)">
		<g>
			<path id="DejaVuSans-35_00000046307116908826030900000016878992414890303651_" class="st4" d="M10.8,89.6h38.7v-8.3H19.8V63.4
				c1.4,0.5,2.9,0.9,4.3,1.1c1.4,0.2,2.9,0.4,4.3,0.4c8.1,0,14.6-2.2,19.3-6.7c4.8-4.5,7.1-10.5,7.1-18.1c0-7.8-2.4-13.9-7.3-18.3
				c-4.9-4.3-11.8-6.5-20.7-6.5c-3.1,0-6.2,0.3-9.4,0.8c-3.2,0.5-6.4,1.3-9.8,2.3v9.9c2.9-1.6,6-2.8,9.1-3.6s6.4-1.2,9.9-1.2
				c5.6,0,10.1,1.5,13.4,4.4c3.3,3,4.9,7,4.9,12.1c0,5.1-1.6,9.1-4.9,12c-3.3,3-7.7,4.5-13.4,4.5c-2.6,0-5.3-0.3-7.9-0.9
				c-2.6-0.6-5.3-1.5-8-2.7V89.6z"/>
		</g>
		<g>
			<path id="DejaVuSans-30_00000079461115174568110970000015637532381352936340_" class="st4" d="M95.4,83.1
				c-5.1,0-8.9-2.5-11.5-7.5c-2.6-5-3.8-12.5-3.8-22.5c0-10,1.3-17.5,3.8-22.5c2.6-5,6.4-7.5,11.5-7.5c5.1,0,8.9,2.5,11.5,7.5
				c2.6,5,3.8,12.5,3.8,22.5c0,10-1.3,17.5-3.8,22.5C104.4,80.6,100.5,83.1,95.4,83.1z M95.4,90.9c8.2,0,14.4-3.2,18.7-9.7
				c4.3-6.5,6.5-15.8,6.5-28.1c0-12.3-2.2-21.6-6.5-28.1c-4.3-6.5-10.6-9.7-18.7-9.7c-8.2,0-14.4,3.2-18.7,9.7
				c-4.3,6.5-6.5,15.8-6.5,28.1c0,12.3,2.2,21.7,6.5,28.1C81,87.7,87.2,90.9,95.4,90.9z"/>
		</g>
	</g>
</g>
<g id="text_12">
	<g transform="translate(110.582813 133.4655) scale(0.07 -0.07)">
		<g>
			<path id="DejaVuSans-24" class="st4" d="M33.8,28.2h-4.9l0,14.7c-3.4,0.1-6.8,0.5-10.2,1.2c-3.4,0.7-6.9,1.8-10.3,3.3v8.8
				c3.3-2.1,6.7-3.7,10.1-4.7c3.4-1.1,6.9-1.6,10.5-1.6v22.3c-7.2,1.2-12.4,3.2-15.7,6c-3.3,2.8-4.9,6.6-4.9,11.5
				c0,5.3,1.8,9.5,5.3,12.5c3.6,3.1,8.6,4.8,15.3,5.3v11.5h4.9v-11.3c3-0.1,5.9-0.5,8.8-1c2.8-0.5,5.6-1.2,8.3-2.1v-8.5
				c-2.7,1.4-5.5,2.4-8.3,3.2c-2.8,0.8-5.8,1.2-8.8,1.3V79.6c7.4-1.1,12.8-3.2,16.3-6.1c3.5-2.9,5.2-6.9,5.2-12
				c0-5.5-1.8-9.8-5.5-13s-9-5-16-5.5V28.2z M28.9,80.5v20c-3.8-0.4-6.7-1.5-8.6-3.2c-2-1.7-3-4-3-6.9c0-2.8,0.9-5,2.8-6.5
				C21.9,82.3,24.8,81.1,28.9,80.5z M33.8,71.1V49.9c4.1,0.6,7.2,1.7,9.3,3.5s3.2,4.2,3.2,7.1c0,2.9-1,5.1-3,6.8
				C41.3,69.1,38.1,70.3,33.8,71.1z"/>
		</g>
	</g>
</g>
<g id="matplotlib.axis_2">
	<g id="ytick_1">
		<g id="line2d_12">
			<g>
				<g>
					<path id="m4070ba1806" class="st3" d="M29.1,103.2h3"/>
				</g>
			</g>
		</g>
		<g id="text_13">
			<g transform="translate(21.792188 105.478125) scale(0.06 -0.06)">
				<g>
					<path id="DejaVuSans-30_00000138532005398486719070000015669433921259319993_" class="st4" d="M31.8,66.4
						c-5.1,0-8.9-2.5-11.5-7.5c-2.6-5-3.8-12.5-3.8-22.5c0-10,1.3-17.5,3.8-22.5c2.6-5,6.4-7.5,11.5-7.5c5.1,0,8.9,2.5,11.5,7.5
						c2.6,5,3.8,12.5,3.8,22.5c0,10-1.3,17.5-3.8,22.5C40.7,63.9,36.9,66.4,31.8,66.4z M31.8,74.2c8.2,0,14.4-3.2,18.7-9.7
						c4.3-6.5,6.5-15.8,6.5-28.1c0-12.3-2.2-21.6-6.5-28.1C46.2,1.8,40-1.4,31.8-1.4c-8.2,0-14.4,3.2-18.7,9.7
						c-4.3,6.5-6.5,15.8-6.5,28.1c0,12.3,2.2,21.7,6.5,28.1C17.4,71,23.6,74.2,31.8,74.2z"/>
				</g>
			</g>
		</g>
	</g>
	<g id="ytick_2">
		<g id="line2d_13">
			<g>
				<g>
					<path id="m4070ba1806_00000062896633712590056440000008235395500984024729_" class="st3" d="M29.1,91.3h3"/>
				</g>
			</g>
		</g>
		<g id="text_14">
			<g transform="translate(17.974688 93.598125) scale(0.06 -0.06)">
				<g>
					<path id="DejaVuSans-31_00000028319531646665810560000014442486540282718609_" class="st4" d="M12.4,8.3h16.1v55.6L11,60.4v9
						l17.4,3.5h9.9V8.3h16.1V0h-42V8.3z"/>
				</g>
				<g>
					<path id="DejaVuSans-30_00000078748886832124398270000009563595505390647201_" class="st4" d="M95.4,66.4
						c-5.1,0-8.9-2.5-11.5-7.5c-2.6-5-3.8-12.5-3.8-22.5c0-10,1.3-17.5,3.8-22.5c2.6-5,6.4-7.5,11.5-7.5c5.1,0,8.9,2.5,11.5,7.5
						c2.6,5,3.8,12.5,3.8,22.5c0,10-1.3,17.5-3.8,22.5C104.4,63.9,100.5,66.4,95.4,66.4z M95.4,74.2c8.2,0,14.4-3.2,18.7-9.7
						c4.3-6.5,6.5-15.8,6.5-28.1c0-12.3-2.2-21.6-6.5-28.1c-4.3-6.5-10.6-9.7-18.7-9.7c-8.2,0-14.4,3.2-18.7,9.7
						c-4.3,6.5-6.5,15.8-6.5,28.1c0,12.3,2.2,21.7,6.5,28.1C81,71,87.2,74.2,95.4,74.2z"/>
				</g>
			</g>
		</g>
	</g>
	<g id="ytick_3">
		<g id="line2d_14">
			<g>
				<g>
					<path id="m4070ba1806_00000131349797912418542640000014669396704141576364_" class="st3" d="M29.1,79.4h3"/>
				</g>
			</g>
		</g>
		<g id="text_15">
			<g transform="translate(17.974688 81.718125) scale(0.06 -0.06)">
				<g>
					<path id="DejaVuSans-32_00000092447701438794133990000006424256000650538122_" class="st4" d="M19.2,8.3h34.4V0H7.3v8.3
						c3.7,3.9,8.8,9.1,15.3,15.6c6.5,6.5,10.5,10.7,12.2,12.6c3.2,3.5,5.4,6.5,6.6,9c1.3,2.5,1.9,4.9,1.9,7.2c0,3.9-1.4,7-4.1,9.5
						c-2.7,2.4-6.3,3.7-10.6,3.7c-3.1,0-6.4-0.5-9.8-1.6c-3.4-1.1-7.1-2.7-11-4.9v10c4,1.6,7.7,2.8,11.1,3.6
						c3.5,0.8,6.6,1.2,9.5,1.2c7.6,0,13.6-1.9,18.1-5.7c4.5-3.8,6.7-8.8,6.7-15.1c0-3-0.6-5.8-1.7-8.5c-1.1-2.7-3.2-5.8-6.1-9.5
						c-0.8-0.9-3.4-3.7-7.8-8.2C33.3,22.7,27.1,16.4,19.2,8.3z"/>
				</g>
				<g>
					<path id="DejaVuSans-30_00000019649550342922997360000009963336205007857852_" class="st4" d="M95.4,66.4
						c-5.1,0-8.9-2.5-11.5-7.5c-2.6-5-3.8-12.5-3.8-22.5c0-10,1.3-17.5,3.8-22.5c2.6-5,6.4-7.5,11.5-7.5c5.1,0,8.9,2.5,11.5,7.5
						c2.6,5,3.8,12.5,3.8,22.5c0,10-1.3,17.5-3.8,22.5C104.4,63.9,100.5,66.4,95.4,66.4z M95.4,74.2c8.2,0,14.4-3.2,18.7-9.7
						c4.3-6.5,6.5-15.8,6.5-28.1c0-12.3-2.2-21.6-6.5-28.1c-4.3-6.5-10.6-9.7-18.7-9.7c-8.2,0-14.4,3.2-18.7,9.7
						c-4.3,6.5-6.5,15.8-6.5,28.1c0,12.3,2.2,21.7,6.5,28.1C81,71,87.2,74.2,95.4,74.2z"/>
				</g>
			</g>
		</g>
	</g>
	<g id="ytick_4">
		<g id="line2d_15">
			<g>
				<g>
					<path id="m4070ba1806_00000078731572436739442480000014903291486418854305_" class="st3" d="M29.1,67.6h3"/>
				</g>
			</g>
		</g>
		<g id="text_16">
			<g transform="translate(17.974688 69.838125) scale(0.06 -0.06)">
				<g>
					<path id="DejaVuSans-33_00000080181131477666570080000003694939488146377386_" class="st4" d="M40.6,39.3c4.7-1,8.4-3.1,11-6.3
						c2.7-3.2,4-7.1,4-11.8c0-7.2-2.5-12.8-7.4-16.7c-4.9-3.9-12-5.9-21.1-5.9c-3.1,0-6.2,0.3-9.4,0.9S11.1,1,7.6,2.2v9.5
						c2.7-1.6,5.7-2.8,9-3.6c3.3-0.8,6.7-1.2,10.2-1.2c6.2,0,10.9,1.2,14.1,3.7s4.9,6,4.9,10.6c0,4.3-1.5,7.7-4.5,10.1
						c-3,2.4-7.2,3.6-12.6,3.6h-8.5V43h8.9c4.8,0,8.6,1,11.1,2.9s3.9,4.7,3.9,8.4c0,3.7-1.3,6.6-4,8.6c-2.6,2-6.4,3-11.4,3
						c-2.7,0-5.6-0.3-8.7-0.9c-3.1-0.6-6.5-1.5-10.2-2.7v8.8c3.8,1,7.3,1.8,10.5,2.3s6.4,0.8,9.2,0.8c7.5,0,13.4-1.7,17.8-5.1
						c4.4-3.4,6.5-8,6.5-13.8c0-4-1.2-7.5-3.5-10.2S44.8,40.4,40.6,39.3z"/>
				</g>
				<g>
					<path id="DejaVuSans-30_00000165933193026903505610000002356039186355585979_" class="st4" d="M95.4,66.4
						c-5.1,0-8.9-2.5-11.5-7.5c-2.6-5-3.8-12.5-3.8-22.5c0-10,1.3-17.5,3.8-22.5c2.6-5,6.4-7.5,11.5-7.5c5.1,0,8.9,2.5,11.5,7.5
						c2.6,5,3.8,12.5,3.8,22.5c0,10-1.3,17.5-3.8,22.5C104.4,63.9,100.5,66.4,95.4,66.4z M95.4,74.2c8.2,0,14.4-3.2,18.7-9.7
						c4.3-6.5,6.5-15.8,6.5-28.1c0-12.3-2.2-21.6-6.5-28.1c-4.3-6.5-10.6-9.7-18.7-9.7c-8.2,0-14.4,3.2-18.7,9.7
						c-4.3,6.5-6.5,15.8-6.5,28.1c0,12.3,2.2,21.7,6.5,28.1C81,71,87.2,74.2,95.4,74.2z"/>
				</g>
			</g>
		</g>
	</g>
	<g id="ytick_5">
		<g id="line2d_16">
			<g>
				<g>
					<path id="m4070ba1806_00000002381307906727755890000013120203494568200108_" class="st3" d="M29.1,55.7h3"/>
				</g>
			</g>
		</g>
		<g id="text_17">
			<g transform="translate(17.974688 57.958125) scale(0.06 -0.06)">
				<g>
					<path id="DejaVuSans-34_00000066495159553946841050000017428410511116047018_" class="st4" d="M37.8,64.3L12.9,25.4h24.9V64.3z
						 M35.2,72.9h12.4V25.4H58v-8.2H47.6V0h-9.8v17.2H4.9v9.5L35.2,72.9z"/>
				</g>
				<g>
					<path id="DejaVuSans-30_00000151513404639884269270000010247562777750816171_" class="st4" d="M95.4,66.4
						c-5.1,0-8.9-2.5-11.5-7.5c-2.6-5-3.8-12.5-3.8-22.5c0-10,1.3-17.5,3.8-22.5c2.6-5,6.4-7.5,11.5-7.5c5.1,0,8.9,2.5,11.5,7.5
						c2.6,5,3.8,12.5,3.8,22.5c0,10-1.3,17.5-3.8,22.5C104.4,63.9,100.5,66.4,95.4,66.4z M95.4,74.2c8.2,0,14.4-3.2,18.7-9.7
						c4.3-6.5,6.5-15.8,6.5-28.1c0-12.3-2.2-21.6-6.5-28.1c-4.3-6.5-10.6-9.7-18.7-9.7c-8.2,0-14.4,3.2-18.7,9.7
						c-4.3,6.5-6.5,15.8-6.5,28.1c0,12.3,2.2,21.7,6.5,28.1C81,71,87.2,74.2,95.4,74.2z"/>
				</g>
			</g>
		</g>
	</g>
	<g id="ytick_6">
		<g id="line2d_17">
			<g>
				<g>
					<path id="m4070ba1806_00000088098518156826381150000000956774258071192997_" class="st3" d="M29.1,43.8h3"/>
				</g>
			</g>
		</g>
		<g id="text_18">
			<g transform="translate(17.974688 46.078125) scale(0.06 -0.06)">
				<g>
					<path id="DejaVuSans-35_00000025434557553106032180000003554538723254321299_" class="st4" d="M10.8,72.9h38.7v-8.3H19.8V46.7
						c1.4,0.5,2.9,0.9,4.3,1.1c1.4,0.2,2.9,0.4,4.3,0.4c8.1,0,14.6-2.2,19.3-6.7c4.8-4.5,7.1-10.5,7.1-18.1c0-7.8-2.4-13.9-7.3-18.3
						c-4.9-4.3-11.8-6.5-20.7-6.5c-3.1,0-6.2,0.3-9.4,0.8c-3.2,0.5-6.4,1.3-9.8,2.3v9.9c2.9-1.6,6-2.8,9.1-3.6s6.4-1.2,9.9-1.2
						c5.6,0,10.1,1.5,13.4,4.4c3.3,3,4.9,7,4.9,12.1c0,5.1-1.6,9.1-4.9,12c-3.3,3-7.7,4.5-13.4,4.5c-2.6,0-5.3-0.3-7.9-0.9
						c-2.6-0.6-5.3-1.5-8-2.7V72.9z"/>
				</g>
				<g>
					<path id="DejaVuSans-30_00000077318953392602687580000000541991420090011009_" class="st4" d="M95.4,66.4
						c-5.1,0-8.9-2.5-11.5-7.5c-2.6-5-3.8-12.5-3.8-22.5c0-10,1.3-17.5,3.8-22.5c2.6-5,6.4-7.5,11.5-7.5c5.1,0,8.9,2.5,11.5,7.5
						c2.6,5,3.8,12.5,3.8,22.5c0,10-1.3,17.5-3.8,22.5C104.4,63.9,100.5,66.4,95.4,66.4z M95.4,74.2c8.2,0,14.4-3.2,18.7-9.7
						c4.3-6.5,6.5-15.8,6.5-28.1c0-12.3-2.2-21.6-6.5-28.1c-4.3-6.5-10.6-9.7-18.7-9.7c-8.2,0-14.4,3.2-18.7,9.7
						c-4.3,6.5-6.5,15.8-6.5,28.1c0,12.3,2.2,21.7,6.5,28.1C81,71,87.2,74.2,95.4,74.2z"/>
				</g>
			</g>
		</g>
	</g>
	<g id="ytick_7">
		<g id="line2d_18">
			<g>
				<g>
					<path id="m4070ba1806_00000075132018829683774250000012340787653173465502_" class="st3" d="M29.1,31.9h3"/>
				</g>
			</g>
		</g>
		<g id="text_19">
			<g transform="translate(17.974688 34.198125) scale(0.06 -0.06)">
				<g>
					<path id="DejaVuSans-36" class="st4" d="M33,40.4c-4.4,0-7.9-1.5-10.5-4.5c-2.6-3-3.9-7.2-3.9-12.4c0-5.2,1.3-9.4,3.9-12.4
						c2.6-3,6.1-4.6,10.5-4.6s7.9,1.5,10.5,4.6c2.6,3.1,3.9,7.2,3.9,12.4c0,5.3-1.3,9.4-3.9,12.4C40.9,38.9,37.4,40.4,33,40.4z
						 M52.6,71.3v-9c-2.5,1.2-5,2.1-7.5,2.7c-2.5,0.6-5,0.9-7.5,0.9c-6.5,0-11.5-2.2-14.9-6.6c-3.4-4.4-5.4-11-5.9-19.9
						c1.9,2.8,4.3,5,7.2,6.5c2.9,1.5,6.1,2.3,9.6,2.3c7.3,0,13.1-2.2,17.4-6.7c4.2-4.4,6.4-10.5,6.4-18.1c0-7.5-2.2-13.5-6.6-18
						C46.3,0.8,40.4-1.4,33-1.4c-8.4,0-14.9,3.2-19.3,9.7C9.2,14.7,7,24.1,7,36.4c0,11.5,2.7,20.7,8.2,27.6s12.8,10.3,22,10.3
						c2.5,0,5-0.2,7.5-0.7S49.9,72.3,52.6,71.3z"/>
				</g>
				<g>
					<path id="DejaVuSans-30_00000178195909336429193250000012172827027705813165_" class="st4" d="M95.4,66.4
						c-5.1,0-8.9-2.5-11.5-7.5c-2.6-5-3.8-12.5-3.8-22.5c0-10,1.3-17.5,3.8-22.5c2.6-5,6.4-7.5,11.5-7.5c5.1,0,8.9,2.5,11.5,7.5
						c2.6,5,3.8,12.5,3.8,22.5c0,10-1.3,17.5-3.8,22.5C104.4,63.9,100.5,66.4,95.4,66.4z M95.4,74.2c8.2,0,14.4-3.2,18.7-9.7
						c4.3-6.5,6.5-15.8,6.5-28.1c0-12.3-2.2-21.6-6.5-28.1c-4.3-6.5-10.6-9.7-18.7-9.7c-8.2,0-14.4,3.2-18.7,9.7
						c-4.3,6.5-6.5,15.8-6.5,28.1c0,12.3,2.2,21.7,6.5,28.1C81,71,87.2,74.2,95.4,74.2z"/>
				</g>
			</g>
		</g>
	</g>
	<g id="ytick_8">
		<g id="line2d_19">
			<g>
				<g>
					<path id="m4070ba1806_00000009572528198497807080000016178217499075962029_" class="st3" d="M29.1,20h3"/>
				</g>
			</g>
		</g>
		<g id="text_20">
			<g transform="translate(17.974688 22.318125) scale(0.06 -0.06)">
				<g>
					<path id="DejaVuSans-37" class="st4" d="M8.2,72.9h46.9v-4.2L28.6,0H18.3l24.9,64.6h-35V72.9z"/>
				</g>
				<g>
					<path id="DejaVuSans-30_00000035492760991996807020000017617435324183716744_" class="st4" d="M95.4,66.4
						c-5.1,0-8.9-2.5-11.5-7.5c-2.6-5-3.8-12.5-3.8-22.5c0-10,1.3-17.5,3.8-22.5c2.6-5,6.4-7.5,11.5-7.5c5.1,0,8.9,2.5,11.5,7.5
						c2.6,5,3.8,12.5,3.8,22.5c0,10-1.3,17.5-3.8,22.5C104.4,63.9,100.5,66.4,95.4,66.4z M95.4,74.2c8.2,0,14.4-3.2,18.7-9.7
						c4.3-6.5,6.5-15.8,6.5-28.1c0-12.3-2.2-21.6-6.5-28.1c-4.3-6.5-10.6-9.7-18.7-9.7c-8.2,0-14.4,3.2-18.7,9.7
						c-4.3,6.5-6.5,15.8-6.5,28.1c0,12.3,2.2,21.7,6.5,28.1C81,71,87.2,74.2,95.4,74.2z"/>
				</g>
			</g>
		</g>
	</g>
	<g id="text_21">
		<g transform="translate(12.518906 72.0125) rotate(-90) scale(0.07 -0.07)">
			<g>
				<path id="DejaVuSans-43" class="st4" d="M64.4,67.3V56.9c-3.3,3.1-6.9,5.4-10.6,6.9c-3.8,1.5-7.8,2.3-12,2.3
					c-8.3,0-14.7-2.5-19.1-7.6S16,46,16,36.4c0-9.6,2.2-17,6.6-22s10.8-7.6,19.1-7.6c4.2,0,8.2,0.8,12,2.3s7.3,3.8,10.6,6.9V5.6
					c-3.4-2.3-7.1-4.1-11-5.3c-3.9-1.2-7.9-1.8-12.2-1.8c-11,0-19.7,3.4-26.1,10.1c-6.3,6.8-9.5,16-9.5,27.7c0,11.7,3.2,21,9.5,27.7
					c6.4,6.8,15.1,10.1,26.1,10.1c4.4,0,8.5-0.6,12.3-1.7C57.4,71.3,61,69.6,64.4,67.3z"/>
			</g>
			<g>
				<path id="DejaVuSans-6f" class="st4" d="M100.4,48.4c-4.8,0-8.6-1.9-11.4-5.6s-4.2-8.9-4.2-15.5s1.4-11.7,4.2-15.5
					c2.8-3.8,6.6-5.6,11.5-5.6c4.8,0,8.6,1.9,11.4,5.7c2.8,3.8,4.2,8.9,4.2,15.4c0,6.5-1.4,11.6-4.2,15.4
					C109,46.5,105.2,48.4,100.4,48.4z M100.4,56c7.8,0,13.9-2.5,18.4-7.6c4.5-5.1,6.7-12.1,6.7-21.1c0-8.9-2.2-16-6.7-21.1
					c-4.5-5.1-10.6-7.6-18.4-7.6c-7.8,0-14,2.5-18.4,7.6c-4.4,5.1-6.7,12.1-6.7,21.1c0,9,2.2,16,6.7,21.1
					C86.4,53.5,92.6,56,100.4,56z"/>
			</g>
			<g>
				<path id="DejaVuSans-75" class="st4" d="M139.5,21.6v33.1h9V21.9c0-5.2,1-9.1,3-11.7c2-2.6,5.1-3.9,9.1-3.9
					c4.8,0,8.7,1.5,11.5,4.6c2.8,3.1,4.2,7.3,4.2,12.7v31h9V0h-9v8.4c-2.2-3.3-4.7-5.8-7.6-7.4c-2.9-1.6-6.2-2.4-10-2.4
					c-6.3,0-11.1,2-14.3,5.9C141.1,8.3,139.5,14.1,139.5,21.6z M162.1,56L162.1,56z"/>
			</g>
			<g>
				<path id="DejaVuSans-6e" class="st4" d="M249.3,33V0h-9v32.7c0,5.2-1,9-3,11.6c-2,2.6-5,3.9-9.1,3.9c-4.9,0-8.7-1.5-11.5-4.6
					c-2.8-3.1-4.2-7.3-4.2-12.6V0h-9v54.7h9v-8.5c2.2,3.3,4.7,5.8,7.6,7.4c2.9,1.6,6.3,2.4,10.1,2.4c6.3,0,11-1.9,14.2-5.8
					C247.7,46.3,249.3,40.6,249.3,33z"/>
			</g>
			<g>
				<path id="DejaVuSans-74" class="st4" d="M276.1,70.2V54.7h18.5v-7h-18.5V18c0-4.5,0.6-7.3,1.8-8.6s3.7-1.9,7.5-1.9h9.2V0h-9.2
					c-6.9,0-11.7,1.3-14.4,3.9c-2.6,2.6-4,7.3-4,14.1v29.7h-6.6v7h6.6v15.5H276.1z"/>
			</g>
		</g>
	</g>
</g>
<g id="patch_23">
	<path class="st1" d="M29.1,107.2h167.4"/>
</g>
<g id="text_22">
	<g transform="translate(50.552188 14.038594) scale(0.09 -0.09)">
		<g>
			<path id="DejaVuSans-52" class="st5" d="M44.4,34.2c2.1-0.7,4.2-2.3,6.2-4.6s4-5.6,6-9.7L66.6,0H56l-9.3,18.7
				c-2.4,4.9-4.8,8.1-7,9.7s-5.3,2.4-9.2,2.4H19.7V0H9.8v72.9h22.3c8.3,0,14.6-1.7,18.7-5.2c4.1-3.5,6.2-8.7,6.2-15.8
				c0-4.6-1.1-8.4-3.2-11.4C51.6,37.4,48.5,35.4,44.4,34.2z M19.7,64.8V38.9h12.4c4.8,0,8.3,1.1,10.8,3.3s3.6,5.4,3.6,9.7
				s-1.2,7.5-3.6,9.6s-6,3.2-10.8,3.2H19.7z"/>
		</g>
		<g>
			<path id="DejaVuSans-65" class="st5" d="M121.2,29.6v-4.4H79.9c0.4-6.2,2.3-10.9,5.6-14.1s8-4.9,13.9-4.9c3.4,0,6.8,0.4,10,1.3
				c3.2,0.8,6.5,2.1,9.7,3.8V2.8c-3.2-1.4-6.5-2.4-9.9-3.1c-3.4-0.7-6.8-1.1-10.3-1.1c-8.7,0-15.6,2.5-20.7,7.6
				c-5.1,5.1-7.6,12-7.6,20.6c0,8.9,2.4,16,7.2,21.3c4.8,5.3,11.4,7.9,19.6,7.9c7.4,0,13.2-2.4,17.5-7.1
				C119,44.2,121.2,37.7,121.2,29.6z M112.2,32.2c-0.1,4.9-1.4,8.8-4.1,11.8c-2.7,2.9-6.2,4.4-10.7,4.4c-5,0-9-1.4-12-4.2
				c-3-2.8-4.7-6.8-5.2-12L112.2,32.2z"/>
		</g>
		<g>
			<path id="DejaVuSans-76" class="st5" d="M129.5,54.7h9.5l17.1-45.9l17.1,45.9h9.5L162.2,0H150L129.5,54.7z"/>
		</g>
		<g>
			<path id="DejaVuSans-65_00000175290773159819327140000013560373691133217163_" class="st5" d="M241.9,29.6v-4.4h-41.3
				c0.4-6.2,2.3-10.9,5.6-14.1c3.3-3.2,8-4.9,13.9-4.9c3.4,0,6.8,0.4,10,1.3c3.2,0.8,6.5,2.1,9.7,3.8V2.8c-3.2-1.4-6.5-2.4-9.9-3.1
				c-3.4-0.7-6.8-1.1-10.3-1.1c-8.7,0-15.6,2.5-20.7,7.6c-5.1,5.1-7.6,12-7.6,20.6c0,8.9,2.4,16,7.2,21.3c4.8,5.3,11.4,7.9,19.6,7.9
				c7.4,0,13.2-2.4,17.5-7.1C239.7,44.2,241.9,37.7,241.9,29.6z M232.9,32.2c-0.1,4.9-1.4,8.8-4.1,11.8c-2.7,2.9-6.2,4.4-10.7,4.4
				c-5,0-9-1.4-12-4.2c-3-2.8-4.7-6.8-5.2-12L232.9,32.2z"/>
		</g>
		<g>
			<path id="DejaVuSans-6e_00000107576529246766803020000004962240151085758132_" class="st5" d="M302.1,33V0h-9v32.7
				c0,5.2-1,9-3,11.6c-2,2.6-5,3.9-9.1,3.9c-4.9,0-8.7-1.5-11.5-4.6c-2.8-3.1-4.2-7.3-4.2-12.6V0h-9v54.7h9v-8.5
				c2.2,3.3,4.7,5.8,7.6,7.4c2.9,1.6,6.3,2.4,10.1,2.4c6.3,0,11-1.9,14.2-5.8C300.5,46.3,302.1,40.6,302.1,33z"/>
		</g>
		<g>
			<path id="DejaVuSans-75_00000072279234727997605870000010388069608367183245_" class="st5" d="M319.1,21.6v33.1h9V21.9
				c0-5.2,1-9.1,3-11.7c2-2.6,5.1-3.9,9.1-3.9c4.8,0,8.7,1.5,11.5,4.6c2.8,3.1,4.2,7.3,4.2,12.7v31h9V0h-9v8.4
				c-2.2-3.3-4.7-5.8-7.6-7.4c-2.9-1.6-6.2-2.4-10-2.4c-6.3,0-11.1,2-14.3,5.9C320.7,8.3,319.1,14.1,319.1,21.6z M341.7,56L341.7,56
				z"/>
		</g>
		<g>
			<path id="DejaVuSans-65_00000015341262664207028950000004355898277212628118_" class="st5" d="M430.2,29.6v-4.4h-41.3
				c0.4-6.2,2.3-10.9,5.6-14.1c3.3-3.2,8-4.9,13.9-4.9c3.4,0,6.8,0.4,10,1.3c3.2,0.8,6.5,2.1,9.7,3.8V2.8c-3.2-1.4-6.5-2.4-9.9-3.1
				c-3.4-0.7-6.8-1.1-10.3-1.1c-8.7,0-15.6,2.5-20.7,7.6c-5.1,5.1-7.6,12-7.6,20.6c0,8.9,2.4,16,7.2,21.3c4.8,5.3,11.4,7.9,19.6,7.9
				c7.4,0,13.2-2.4,17.5-7.1C428,44.2,430.2,37.7,430.2,29.6z M421.2,32.2c-0.1,4.9-1.4,8.8-4.1,11.8c-2.7,2.9-6.2,4.4-10.7,4.4
				c-5,0-9-1.4-12-4.2c-3-2.8-4.7-6.8-5.2-12L421.2,32.2z"/>
		</g>
		<g>
			<path id="DejaVuSans-20" class="st5" d="M435.5,0"/>
		</g>
		<g>
			<path id="DejaVuSans-50" class="st5" d="M486.9,64.8V37.4h12.4c4.6,0,8.1,1.2,10.6,3.6c2.5,2.4,3.8,5.8,3.8,10.2
				c0,4.4-1.3,7.7-3.8,10.1c-2.5,2.4-6,3.6-10.6,3.6H486.9z M477.1,72.9h22.3c8.2,0,14.4-1.8,18.5-5.5c4.2-3.7,6.3-9.1,6.3-16.2
				c0-7.2-2.1-12.6-6.3-16.3c-4.2-3.7-10.4-5.5-18.5-5.5h-12.4V0h-9.9V72.9z"/>
		</g>
		<g>
			<path id="DejaVuSans-65_00000049921430204192666990000005758373175693252516_" class="st5" d="M580.2,29.6v-4.4h-41.3
				c0.4-6.2,2.3-10.9,5.6-14.1c3.3-3.2,8-4.9,13.9-4.9c3.4,0,6.8,0.4,10,1.3c3.2,0.8,6.5,2.1,9.7,3.8V2.8c-3.2-1.4-6.5-2.4-9.9-3.1
				c-3.4-0.7-6.8-1.1-10.3-1.1c-8.7,0-15.6,2.5-20.7,7.6c-5.1,5.1-7.6,12-7.6,20.6c0,8.9,2.4,16,7.2,21.3c4.8,5.3,11.4,7.9,19.6,7.9
				c7.4,0,13.2-2.4,17.5-7.1C578,44.2,580.2,37.7,580.2,29.6z M571.2,32.2c-0.1,4.9-1.4,8.8-4.1,11.8c-2.7,2.9-6.2,4.4-10.7,4.4
				c-5,0-9-1.4-12-4.2c-3-2.8-4.7-6.8-5.2-12L571.2,32.2z"/>
		</g>
		<g>
			<path id="DejaVuSans-72" class="st5" d="M626.6,46.3c-1,0.6-2.1,1-3.3,1.3c-1.2,0.3-2.5,0.4-3.9,0.4c-5.1,0-9-1.7-11.7-5
				s-4.1-8-4.1-14.2V0h-9v54.7h9v-8.5c1.9,3.3,4.4,5.8,7.4,7.4c3,1.6,6.7,2.4,11,2.4c0.6,0,1.3,0,2-0.1c0.8-0.1,1.6-0.2,2.5-0.4
				L626.6,46.3z"/>
		</g>
		<g>
			<path id="DejaVuSans-20_00000008838967766810593330000005013667637177049516_" class="st5" d="M626.6,0"/>
		</g>
		<g>
			<path id="DejaVuSans-53" class="st5" d="M711.9,70.5v-9.6c-3.7,1.8-7.3,3.1-10.6,4c-3.3,0.9-6.5,1.3-9.6,1.3
				c-5.4,0-9.5-1-12.4-3.1c-2.9-2.1-4.4-5-4.4-8.9c0-3.2,1-5.7,2.9-7.3c1.9-1.6,5.6-3,11-4l6-1.2c7.4-1.4,12.8-3.9,16.3-7.4
				s5.2-8.3,5.2-14.2c0-7.1-2.4-12.4-7.1-16.1c-4.7-3.6-11.7-5.5-20.8-5.5c-3.4,0-7.1,0.4-11,1.2c-3.9,0.8-7.9,1.9-12.1,3.5v10.2
				c4-2.2,7.9-3.9,11.8-5.1c3.8-1.1,7.6-1.7,11.3-1.7c5.6,0,10,1.1,13,3.3c3.1,2.2,4.6,5.4,4.6,9.5c0,3.6-1.1,6.4-3.3,8.4
				c-2.2,2-5.8,3.5-10.8,4.5l-6,1.2c-7.4,1.5-12.7,3.8-16,6.9c-3.3,3.1-4.9,7.5-4.9,13c0,6.4,2.3,11.5,6.8,15.2
				c4.5,3.7,10.8,5.6,18.8,5.6c3.4,0,6.9-0.3,10.5-0.9C704.6,72.7,708.2,71.7,711.9,70.5z"/>
		</g>
		<g>
			<path id="DejaVuSans-70" class="st5" d="M740,8.2v-29h-9v75.5h9v-8.3c1.9,3.2,4.3,5.7,7.2,7.2c2.9,1.6,6.3,2.4,10.3,2.4
				c6.6,0,12-2.6,16.2-7.9c4.2-5.3,6.2-12.2,6.2-20.8s-2.1-15.5-6.2-20.8c-4.1-5.3-9.5-7.9-16.2-7.9c-4,0-7.4,0.8-10.3,2.4
				C744.2,2.5,741.9,5,740,8.2z M770.5,27.3c0,6.6-1.4,11.8-4.1,15.5s-6.5,5.6-11.2,5.6c-4.8,0-8.5-1.9-11.2-5.6s-4.1-8.9-4.1-15.5
				s1.4-11.8,4.1-15.5s6.5-5.6,11.2-5.6c4.8,0,8.5,1.9,11.2,5.6S770.5,20.7,770.5,27.3z"/>
		</g>
		<g>
			<path id="DejaVuSans-61" class="st5" d="M819.6,27.5c-7.3,0-12.3-0.8-15.1-2.5c-2.8-1.7-4.2-4.5-4.2-8.5c0-3.2,1.1-5.7,3.2-7.6
				c2.1-1.9,5-2.8,8.6-2.8c5,0,9,1.8,12,5.3c3,3.5,4.5,8.2,4.5,14.1v2H819.6z M837.5,31.2V0h-9v8.3c-2.1-3.3-4.6-5.8-7.7-7.3
				s-6.8-2.4-11.2-2.4c-5.6,0-10,1.6-13.4,4.7c-3.3,3.1-5,7.4-5,12.6c0,6.1,2.1,10.8,6.2,13.9c4.1,3.1,10.3,4.7,18.4,4.7h12.6v0.9
				c0,4.1-1.4,7.3-4.1,9.6s-6.5,3.4-11.5,3.4c-3.1,0-6.2-0.4-9.1-1.1c-3-0.8-5.8-1.9-8.5-3.4v8.3c3.3,1.3,6.5,2.2,9.6,2.8
				c3.1,0.6,6.1,1,9,1c7.9,0,13.8-2.1,17.7-6.2C835.6,45.7,837.5,39.5,837.5,31.2z"/>
		</g>
		<g>
			<path id="DejaVuSans-63" class="st5" d="M895.4,52.6v-8.4c-2.5,1.4-5.1,2.5-7.6,3.2c-2.6,0.7-5.1,1-7.7,1
				c-5.8,0-10.4-1.8-13.6-5.5c-3.2-3.7-4.8-8.9-4.8-15.5s1.6-11.9,4.8-15.6c3.2-3.7,7.8-5.5,13.6-5.5c2.6,0,5.2,0.3,7.7,1
				c2.6,0.7,5.1,1.7,7.6,3.2V2.1c-2.5-1.2-5.1-2-7.8-2.6c-2.7-0.6-5.5-0.9-8.6-0.9c-8.2,0-14.8,2.6-19.6,7.8
				c-4.8,5.2-7.3,12.2-7.3,21c0,8.9,2.4,15.9,7.3,21c4.9,5.1,11.6,7.7,20.2,7.7c2.8,0,5.5-0.3,8.1-0.9
				C890.4,54.6,892.9,53.7,895.4,52.6z"/>
		</g>
		<g>
			<path id="DejaVuSans-65_00000183967420453979835180000017216801810175035785_" class="st5" d="M957.8,29.6v-4.4h-41.3
				c0.4-6.2,2.3-10.9,5.6-14.1c3.3-3.2,8-4.9,13.9-4.9c3.4,0,6.8,0.4,10,1.3c3.2,0.8,6.5,2.1,9.7,3.8V2.8c-3.2-1.4-6.5-2.4-9.9-3.1
				c-3.4-0.7-6.8-1.1-10.3-1.1c-8.7,0-15.6,2.5-20.7,7.6c-5.1,5.1-7.6,12-7.6,20.6c0,8.9,2.4,16,7.2,21.3c4.8,5.3,11.4,7.9,19.6,7.9
				c7.4,0,13.2-2.4,17.5-7.1C955.7,44.2,957.8,37.7,957.8,29.6z M948.8,32.2c-0.1,4.9-1.4,8.8-4.1,11.8c-2.7,2.9-6.2,4.4-10.7,4.4
				c-5,0-9-1.4-12-4.2c-3-2.8-4.7-6.8-5.2-12L948.8,32.2z"/>
		</g>
		<g>
			<path id="DejaVuSans-20_00000140697849377429271820000000944992748969471670_" class="st5" d="M963.1,0"/>
		</g>
		<g>
			<path id="DejaVuSans-50_00000168819033687063618030000001744220155196022419_" class="st5" d="M1014.6,64.8V37.4h12.4
				c4.6,0,8.1,1.2,10.6,3.6c2.5,2.4,3.8,5.8,3.8,10.2c0,4.4-1.3,7.7-3.8,10.1c-2.5,2.4-6,3.6-10.6,3.6H1014.6z M1004.7,72.9h22.3
				c8.2,0,14.4-1.8,18.5-5.5c4.2-3.7,6.3-9.1,6.3-16.2c0-7.2-2.1-12.6-6.3-16.3c-4.2-3.7-10.4-5.5-18.5-5.5h-12.4V0h-9.9V72.9z"/>
		</g>
		<g>
			<path id="DejaVuSans-65_00000091711181682004046960000006776758286335650237_" class="st5" d="M1107.8,29.6v-4.4h-41.3
				c0.4-6.2,2.3-10.9,5.6-14.1c3.3-3.2,8-4.9,13.9-4.9c3.4,0,6.8,0.4,10,1.3c3.2,0.8,6.5,2.1,9.7,3.8V2.8c-3.2-1.4-6.5-2.4-9.9-3.1
				c-3.4-0.7-6.8-1.1-10.3-1.1c-8.7,0-15.6,2.5-20.7,7.6c-5.1,5.1-7.6,12-7.6,20.6c0,8.9,2.4,16,7.2,21.3c4.8,5.3,11.4,7.9,19.6,7.9
				c7.4,0,13.2-2.4,17.5-7.1C1105.6,44.2,1107.8,37.7,1107.8,29.6z M1098.8,32.2c-0.1,4.9-1.4,8.8-4.1,11.8
				c-2.7,2.9-6.2,4.4-10.7,4.4c-5,0-9-1.4-12-4.2c-3-2.8-4.7-6.8-5.2-12L1098.8,32.2z"/>
		</g>
		<g>
			<path id="DejaVuSans-72_00000001640909194380097480000004378071562793420467_" class="st5" d="M1154.2,46.3c-1,0.6-2.1,1-3.3,1.3
				c-1.2,0.3-2.5,0.4-3.9,0.4c-5.1,0-9-1.7-11.7-5s-4.1-8-4.1-14.2V0h-9v54.7h9v-8.5c1.9,3.3,4.4,5.8,7.4,7.4c3,1.6,6.7,2.4,11,2.4
				c0.6,0,1.3,0,2-0.1c0.8-0.1,1.6-0.2,2.5-0.4L1154.2,46.3z"/>
		</g>
		<g>
			<path id="DejaVuSans-20_00000072273702163167124660000003281879582879654312_" class="st5" d="M1154.2,0"/>
		</g>
		<g>
			<path id="DejaVuSans-44" class="st5" d="M1205.7,64.8V8.1h11.9c10.1,0,17.4,2.3,22.1,6.8c4.7,4.6,7,11.8,7,21.6
				c0,9.8-2.3,16.9-7,21.5c-4.7,4.5-12,6.8-22.1,6.8H1205.7z M1195.8,72.9h20.3c14.1,0,24.5-2.9,31.1-8.8c6.6-5.9,9.9-15.1,9.9-27.6
				c0-12.6-3.3-21.8-10-27.7c-6.6-5.9-17-8.8-31-8.8h-20.3V72.9z"/>
		</g>
		<g>
			<path id="DejaVuSans-61_00000103967899584406842650000017393624375796872604_" class="st5" d="M1297.3,27.5
				c-7.3,0-12.3-0.8-15.1-2.5c-2.8-1.7-4.2-4.5-4.2-8.5c0-3.2,1.1-5.7,3.2-7.6c2.1-1.9,5-2.8,8.6-2.8c5,0,9,1.8,12,5.3
				c3,3.5,4.5,8.2,4.5,14.1v2H1297.3z M1315.2,31.2V0h-9v8.3c-2.1-3.3-4.6-5.8-7.7-7.3s-6.8-2.4-11.2-2.4c-5.6,0-10,1.6-13.4,4.7
				c-3.3,3.1-5,7.4-5,12.6c0,6.1,2.1,10.8,6.2,13.9c4.1,3.1,10.3,4.7,18.4,4.7h12.6v0.9c0,4.1-1.4,7.3-4.1,9.6s-6.5,3.4-11.5,3.4
				c-3.1,0-6.2-0.4-9.1-1.1c-3-0.8-5.8-1.9-8.5-3.4v8.3c3.3,1.3,6.5,2.2,9.6,2.8c3.1,0.6,6.1,1,9,1c7.9,0,13.8-2.1,17.7-6.2
				C1313.3,45.7,1315.2,39.5,1315.2,31.2z"/>
		</g>
		<g>
			<path id="DejaVuSans-79" class="st5" d="M1356.5-5.1c-2.5-6.5-5-10.8-7.4-12.7c-2.4-2-5.6-3-9.7-3h-7.2v7.5h5.3
				c2.5,0,4.4,0.6,5.8,1.8c1.4,1.2,2.9,3.9,4.5,8.3l1.6,4.1l-22.1,53.8h9.5l17.1-42.8l17.1,42.8h9.5L1356.5-5.1z"/>
		</g>
	</g>
</g>
</svg>
